<?xml version="1.0" standalone="no"?>
<!DOCTYPE svg PUBLIC "-//W3C//DTD SVG 20010904//EN"
 "http://www.w3.org/TR/2001/REC-SVG-20010904/DTD/svg10.dtd">
<svg version="1.0" xmlns="http://www.w3.org/2000/svg"
 width="220.000000pt" height="220.000000pt" viewBox="0 0 220.000000 220.000000"
 preserveAspectRatio="xMidYMid meet">
<metadata>
Created by potrace 1.11, written by Peter Selinger 2001-2013
</metadata>
<g transform="translate(0.000000,220.000000) scale(0.100000,-0.100000)"
fill="#000000" stroke="none">
<path d="M1139 2186 c-2 -2 -49 -6 -104 -9 -141 -8 -269 -40 -382 -95 -35 -17
-63 -27 -63 -24 0 4 -4 2 -8 -3 -4 -6 -37 -30 -74 -54 -38 -24 -68 -47 -68
-52 0 -5 -5 -9 -10 -9 -6 0 -24 -13 -42 -30 -17 -16 -36 -30 -41 -30 -6 0 -8
-3 -5 -6 3 -3 -9 -21 -28 -39 -19 -19 -34 -40 -34 -46 0 -7 -3 -9 -7 -6 -3 4
-17 -11 -30 -33 -13 -22 -29 -40 -34 -40 -6 0 -8 -4 -4 -9 3 -5 -2 -16 -10
-25 -18 -18 -98 -184 -98 -203 0 -7 -4 -13 -9 -13 -5 0 -6 -5 -3 -10 4 -6 1
-17 -5 -25 -6 -8 -9 -19 -5 -25 3 -5 2 -10 -4 -10 -5 0 -8 -8 -6 -17 1 -10 -1
-22 -5 -28 -30 -40 -30 -398 1 -456 4 -9 6 -19 2 -22 -3 -4 -1 -13 5 -20 7 -8
10 -16 7 -19 -3 -3 1 -21 9 -40 9 -20 12 -38 9 -42 -4 -3 -1 -6 5 -6 7 0 12
-9 12 -19 0 -11 5 -23 10 -26 6 -4 8 -11 5 -16 -4 -5 -1 -9 5 -9 6 0 8 -4 5
-10 -3 -5 -1 -10 6 -10 7 0 10 -3 6 -6 -3 -4 5 -23 18 -43 14 -19 25 -40 25
-44 0 -17 102 -141 170 -207 77 -76 185 -151 285 -198 98 -47 100 -48 100 -60
0 -6 3 -14 7 -18 5 -4 8 0 8 9 0 20 4 20 50 6 19 -6 44 -12 55 -14 11 -2 38
-7 60 -12 55 -13 267 -14 340 -1 82 14 79 13 93 21 6 5 12 6 12 3 0 -8 134 40
201 73 68 33 84 38 73 20 -3 -6 -8 -25 -10 -42 -1 -18 -5 -51 -8 -75 -3 -23
-2 -42 3 -42 10 0 16 22 27 110 4 30 8 57 8 60 2 11 37 55 40 50 3 -3 16 5 30
18 15 12 28 22 31 22 9 0 149 143 175 179 14 18 33 42 43 52 9 11 14 19 10 19
-3 0 2 9 12 20 10 11 14 20 9 20 -5 0 -4 4 1 8 20 15 75 123 68 134 -2 5 1 8
6 8 6 0 10 3 10 8 -1 4 0 10 1 15 1 4 3 10 5 15 1 4 7 20 13 35 7 16 10 33 6
38 -3 5 -1 9 5 9 5 0 8 8 6 18 -1 9 0 22 4 27 3 6 7 19 9 30 1 11 4 27 5 35 1
8 6 21 10 28 5 7 3 12 -3 12 -8 0 -8 6 0 20 8 14 8 20 0 20 -7 0 -8 5 -3 13 9
13 12 177 3 177 -3 0 -5 15 -6 33 -1 37 -10 89 -23 134 -5 17 -7 34 -3 37 3 3
1 6 -5 6 -6 0 -14 15 -17 33 -4 17 -17 54 -31 81 -13 27 -22 53 -19 58 3 4 2
8 -3 8 -4 0 -24 27 -42 60 -19 33 -39 60 -44 60 -4 0 -6 4 -3 8 3 5 -4 15 -15
22 -10 8 -19 19 -19 24 0 5 -35 43 -79 85 -91 88 -118 111 -131 111 -5 0 -13
6 -17 13 -8 12 -26 23 -96 60 -23 11 -45 25 -48 30 -3 5 -8 8 -10 6 -5 -3 -81
22 -94 31 -9 6 -80 27 -115 34 -58 11 -91 16 -134 21 -27 3 -53 8 -56 10 -4 3
-9 3 -11 1z"/>
</g>
</svg>
